<svg version="1.0" xmlns="http://www.w3.org/2000/svg"
 width="270.000000pt" height="80.000000pt" viewBox="0 0 270.000000 80.000000"
 preserveAspectRatio="xMidYMid meet">

<g transform="translate(50.000000,80.000000) scale(0.0200000,-0.0200000)"
fill="#FFFFFF" stroke="none">
<path d="M2875 4014 c-11 -3 -58 -14 -105 -25 -76 -18 -191 -55 -245 -80 -11
-4 -54 -22 -96 -38 -42 -16 -148 -64 -235 -106 -87 -42 -168 -80 -179 -85 -11
-4 -36 -15 -55 -23 -104 -44 -350 -124 -430 -139 -227 -42 -307 -49 -535 -46
l-230 3 -67 -32 c-103 -48 -108 -84 -24 -148 56 -43 115 -55 260 -55 216 0
460 42 771 132 195 56 243 73 383 140 68 32 125 58 127 58 2 0 36 15 77 34
233 107 480 202 563 216 76 12 89 1 81 -71 -3 -32 -15 -87 -26 -121 -23 -69
-21 -65 -79 -191 -23 -48 -41 -90 -41 -93 0 -2 -13 -33 -29 -67 -16 -34 -48
-107 -71 -162 -23 -55 -53 -125 -67 -155 -22 -48 -75 -181 -135 -335 -27 -70
-60 -201 -65 -259 -7 -67 28 -182 79 -262 15 -24 28 -50 28 -57 0 -30 -236
-203 -390 -286 -88 -47 -264 -122 -365 -156 -38 -13 -135 -47 -215 -75 -80
-28 -163 -57 -185 -64 -81 -27 -704 -248 -819 -292 -66 -25 -140 -52 -165 -61
-107 -36 -290 -116 -295 -130 -12 -30 46 -70 127 -88 75 -17 94 -15 152 11 36
16 391 158 525 209 52 20 158 62 235 92 166 66 171 68 390 145 329 116 405
136 405 108 0 -6 -17 -29 -38 -53 -98 -108 -215 -275 -272 -386 -51 -101 -100
-269 -100 -343 0 -38 19 -116 39 -157 18 -38 81 -92 126 -109 259 -94 772 145
1175 548 204 204 281 341 309 545 13 95 59 193 132 283 45 55 58 63 152 102
131 54 342 161 482 245 60 36 114 64 120 62 11 -4 9 -116 -5 -247 -5 -47 -14
-148 -20 -225 -5 -77 -15 -198 -20 -270 -34 -434 -35 -405 8 -442 25 -23 66
-30 89 -15 15 10 37 70 52 144 7 33 21 63 34 75 49 45 637 211 982 277 275 52
423 71 715 92 210 14 320 12 320 -5 0 -14 -34 -38 -96 -69 -108 -54 -417 -181
-604 -248 -204 -74 -210 -76 -210 -89 0 -7 7 -18 15 -25 23 -19 103 0 359 84
541 179 795 285 812 340 7 22 -21 63 -64 92 -18 12 -66 30 -107 39 -124 27
-595 14 -830 -24 -324 -53 -635 -116 -866 -176 -59 -16 -99 -19 -99 -9 0 4 79
87 175 185 270 276 309 349 218 412 -53 38 -118 38 -222 3 -41 -14 -78 -26
-83 -26 -18 0 -5 24 55 103 34 45 80 108 102 139 22 31 51 61 65 66 14 6 212
15 440 22 479 14 704 23 915 39 83 6 224 15 315 21 91 6 217 15 280 20 63 6
183 15 265 20 344 24 585 42 940 70 128 10 355 25 610 40 501 29 566 34 925
71 366 37 600 96 600 150 0 32 -75 99 -154 137 -129 63 -417 128 -671 152 -44
4 -132 12 -195 18 -353 34 -866 44 -1132 22 -68 -5 -190 -15 -273 -21 -301
-23 -525 -44 -580 -54 -16 -4 -66 -10 -110 -15 -99 -11 -298 -37 -385 -49 -59
-9 -183 -26 -360 -51 -36 -5 -92 -14 -125 -20 -33 -5 -81 -10 -107 -10 -25 0
-68 -4 -95 -10 -26 -5 -88 -17 -138 -25 -49 -9 -106 -20 -125 -25 -19 -5 -71
-16 -115 -26 -142 -30 -602 -148 -824 -210 -75 -22 -131 -30 -131 -20 0 2 20
46 44 97 47 99 86 209 86 241 0 25 -33 89 -56 110 -30 26 -99 50 -139 46 -38
-3 -48 -14 -79 -88 -21 -53 -62 -165 -91 -255 -52 -164 -58 -181 -72 -207 -9
-18 -18 -25 -29 -21 -13 5 -15 19 -9 92 4 47 11 100 15 116 14 45 40 232 40
282 0 24 -7 57 -14 72 -38 72 -138 121 -176 86 -10 -9 -83 -107 -161 -217 -79
-110 -149 -202 -156 -205 -19 -7 -175 83 -241 140 -194 166 -361 277 -416 277
-40 0 -81 -33 -100 -80 -14 -36 -15 -80 -9 -374 l6 -333 -94 -70 c-52 -37
-124 -90 -161 -116 -36 -26 -72 -53 -80 -60 -7 -7 -32 -24 -55 -37 -37 -20
-44 -21 -59 -9 -64 53 -73 214 -25 411 57 231 65 253 146 403 162 297 284 550
348 715 74 194 62 306 -39 359 -25 12 -120 22 -149 15z m388 -964 c43 -20 89
-60 184 -161 54 -58 149 -126 241 -174 28 -15 52 -32 52 -37 0 -5 -22 -44 -50
-86 -36 -54 -50 -86 -50 -110 0 -35 -10 -48 -148 -201 -18 -20 -59 -76 -92
-126 -105 -161 -173 -234 -205 -221 -16 6 -19 52 -8 132 6 45 13 54 106 143
119 115 236 250 266 308 27 54 27 100 -1 130 -43 46 -125 24 -261 -67 -85 -58
-107 -69 -107 -52 0 4 -7 39 -15 77 -24 114 -39 357 -25 402 23 70 41 77 113
43z m5655 -5 c84 -3 194 -9 245 -14 51 -6 146 -15 212 -21 234 -22 462 -67
536 -106 34 -17 38 -48 8 -64 -64 -35 -158 -50 -424 -70 -133 -10 -408 -31
-640 -50 -224 -18 -534 -41 -680 -50 -77 -5 -230 -16 -340 -24 -110 -9 -270
-21 -355 -26 -85 -6 -245 -18 -355 -26 -110 -8 -270 -19 -355 -24 -559 -34
-707 -42 -885 -50 -110 -5 -283 -14 -385 -19 -102 -5 -279 -11 -395 -13 l-210
-2 -18 38 c-10 21 -16 44 -14 50 3 6 31 19 63 28 254 74 500 133 659 158 312
49 511 80 645 99 36 5 112 17 170 25 58 8 146 20 195 26 50 6 158 20 240 31
83 11 197 24 255 29 58 6 175 16 260 25 372 35 567 47 865 55 274 6 392 5 703
-5z m-4334 -91 c9 -8 16 -21 16 -28 0 -31 -134 -256 -152 -256 -13 0 -6 47 22
139 46 155 72 188 114 145z m-458 -126 c-11 -187 -15 -208 -38 -208 -33 0
-168 72 -168 89 0 8 118 152 163 199 17 17 35 32 40 32 5 0 7 -47 3 -112z
m-167 -248 c45 -22 93 -45 107 -50 26 -10 26 -12 22 -91 -4 -93 6 -82 -158
-186 -122 -78 -383 -213 -411 -213 -10 0 -19 5 -19 12 0 6 33 54 73 106 39 53
89 120 110 150 20 30 48 68 62 84 14 17 25 42 25 59 0 46 70 169 96 169 7 0
49 -18 93 -40z m-569 -84 c0 -30 -148 -196 -176 -196 -15 0 -15 10 6 66 13 34
62 86 109 116 50 31 61 34 61 14z m1192 -149 c-8 -10 -100 -135 -179 -242 -62
-84 -103 -149 -103 -161 0 -8 16 -32 36 -54 26 -28 44 -40 64 -40 15 0 90 20
166 45 142 46 164 51 164 36 0 -31 -325 -353 -419 -415 -83 -54 -111 -59 -111
-18 0 101 56 426 80 473 6 10 10 40 10 68 0 27 4 52 9 55 5 3 12 22 16 43 9
49 118 158 200 200 58 29 85 33 67 10z m-1542 -126 c0 -23 -10 -36 -49 -65
-51 -37 -139 -81 -147 -73 -8 8 170 165 189 166 4 1 7 -12 7 -28z m-2 -262 c2
-48 -1 -59 -22 -80 -31 -31 -127 -79 -157 -79 -51 0 -74 54 -43 99 30 42 178
125 209 117 6 -1 11 -27 13 -57z m-331 -155 c25 -27 31 -39 23 -49 -6 -7 -63
-22 -128 -34 -64 -12 -148 -28 -186 -36 -142 -30 -159 -12 -44 46 102 52 245
108 277 109 15 0 37 -14 58 -36z m413 -86 c0 -6 -10 -26 -21 -45 -16 -26 -24
-31 -30 -21 -12 18 -12 19 11 56 19 30 40 36 40 10z m-246 -78 c14 -5 32 -23
41 -41 14 -26 15 -41 6 -93 -20 -114 -8 -189 36 -234 19 -20 16 -30 -19 -76
-116 -149 -240 -264 -429 -398 -150 -106 -180 -124 -312 -190 -187 -94 -428
-144 -505 -104 -81 42 -99 179 -42 324 40 105 220 379 308 471 7 8 37 44 66
80 29 36 62 74 73 83 33 30 127 63 248 87 22 5 85 18 140 29 55 11 132 26 170
33 60 11 186 36 192 38 1 1 13 -3 27 -9z"/>
</g>
</svg>
